<svg width="20" height="20" viewBox="0 0 20 20" fill="none" xmlns="http://www.w3.org/2000/svg">
    <path d="M13.854 7.146C13.9006 7.19245 13.9375 7.24762 13.9627 7.30837C13.9879 7.36911 14.0009 7.43423 14.0009 7.5C14.0009 7.56577 13.9879 7.63089 13.9627 7.69163C13.9375 7.75238 13.9006 7.80755 13.854 7.854L12.104 9.604C12.0129 9.69498 11.8902 9.74732 11.7615 9.75012C11.6328 9.75291 11.508 9.70595 11.413 9.619L10.663 8.934C10.5701 8.84339 10.5161 8.72022 10.5123 8.59051C10.5086 8.4608 10.5554 8.33472 10.6429 8.2389C10.7304 8.14308 10.8518 8.08504 10.9813 8.07703C11.1108 8.06903 11.2384 8.11169 11.337 8.196L11.734 8.558L13.146 7.146C13.1924 7.09944 13.2476 7.06249 13.3084 7.03729C13.3691 7.01208 13.4342 6.99911 13.5 6.99911C13.5658 6.99911 13.6309 7.01208 13.6916 7.03729C13.7524 7.06249 13.8076 7.09944 13.854 7.146V7.146ZM13.854 12.854C13.9479 12.7602 14.0007 12.633 14.0008 12.5004C14.0009 12.3677 13.9483 12.2404 13.8545 12.1465C13.7607 12.0526 13.6335 11.9998 13.5009 11.9997C13.3682 11.9996 13.2409 12.0522 13.147 12.146L11.734 13.558L11.337 13.196C11.2384 13.1117 11.1108 13.069 10.9813 13.077C10.8518 13.085 10.7304 13.1431 10.6429 13.2389C10.5554 13.3347 10.5086 13.4608 10.5123 13.5905C10.5161 13.7202 10.5701 13.8434 10.663 13.934L11.413 14.619C11.5079 14.7057 11.6325 14.7524 11.761 14.7496C11.8895 14.7468 12.012 14.6947 12.103 14.604L13.853 12.854H13.854ZM6.5 8C6.36739 8 6.24021 8.05268 6.14645 8.14645C6.05268 8.24021 6 8.36739 6 8.5C6 8.63261 6.05268 8.75979 6.14645 8.85355C6.24021 8.94732 6.36739 9 6.5 9H9C9.13261 9 9.25979 8.94732 9.35355 8.85355C9.44732 8.75979 9.5 8.63261 9.5 8.5C9.5 8.36739 9.44732 8.24021 9.35355 8.14645C9.25979 8.05268 9.13261 8 9 8H6.5ZM6 13.5C6 13.3674 6.05268 13.2402 6.14645 13.1464C6.24021 13.0527 6.36739 13 6.5 13H9C9.13261 13 9.25979 13.0527 9.35355 13.1464C9.44732 13.2402 9.5 13.3674 9.5 13.5C9.5 13.6326 9.44732 13.7598 9.35355 13.8536C9.25979 13.9473 9.13261 14 9 14H6.5C6.36739 14 6.24021 13.9473 6.14645 13.8536C6.05268 13.7598 6 13.6326 6 13.5ZM7.085 3C7.18844 2.70742 7.38008 2.45413 7.63351 2.27503C7.88694 2.09593 8.18967 1.99984 8.5 2H11.5C11.8103 1.99984 12.1131 2.09593 12.3665 2.27503C12.6199 2.45413 12.8116 2.70742 12.915 3H14.5C14.8978 3 15.2794 3.15804 15.5607 3.43934C15.842 3.72064 16 4.10218 16 4.5V16.5C16 16.8978 15.842 17.2794 15.5607 17.5607C15.2794 17.842 14.8978 18 14.5 18H5.5C5.10218 18 4.72064 17.842 4.43934 17.5607C4.15804 17.2794 4 16.8978 4 16.5V4.5C4 4.10218 4.15804 3.72064 4.43934 3.43934C4.72064 3.15804 5.10218 3 5.5 3H7.085ZM8.5 3C8.36739 3 8.24021 3.05268 8.14645 3.14645C8.05268 3.24022 8 3.36739 8 3.5C8 3.63261 8.05268 3.75979 8.14645 3.85355C8.24021 3.94732 8.36739 4 8.5 4H11.5C11.6326 4 11.7598 3.94732 11.8536 3.85355C11.9473 3.75979 12 3.63261 12 3.5C12 3.36739 11.9473 3.24022 11.8536 3.14645C11.7598 3.05268 11.6326 3 11.5 3H8.5ZM7.085 4H5.5C5.36739 4 5.24021 4.05268 5.14645 4.14645C5.05268 4.24022 5 4.36739 5 4.5V16.5C5 16.6326 5.05268 16.7598 5.14645 16.8536C5.24021 16.9473 5.36739 17 5.5 17H14.5C14.6326 17 14.7598 16.9473 14.8536 16.8536C14.9473 16.7598 15 16.6326 15 16.5V4.5C15 4.36739 14.9473 4.24022 14.8536 4.14645C14.7598 4.05268 14.6326 4 14.5 4H12.915C12.8116 4.29258 12.6199 4.54587 12.3665 4.72497C12.1131 4.90407 11.8103 5.00016 11.5 5H8.5C8.18967 5.00016 7.88694 4.90407 7.63351 4.72497C7.38008 4.54587 7.18844 4.29258 7.085 4V4Z" fill="#FF4791" />
</svg>
    